<svg width="189" height="89" viewBox="0 0 189 89" fill="none" xmlns="http://www.w3.org/2000/svg">
<rect width="188.881" height="88.7964" fill="white"/>
<path fill-rule="evenodd" clip-rule="evenodd" d="M69.0647 64.4353V58.1591H71.0519C71.6556 58.1591 72.1335 58.3226 72.4857 58.6496C72.8379 58.9766 73.0139 59.4043 73.0139 59.9451C73.0139 60.3098 72.9259 60.6369 72.7372 60.9136C72.5486 61.1903 72.3096 61.4041 71.9826 61.5299C71.6682 61.6557 71.2028 61.7185 70.6117 61.7185H69.9451V64.4353H69.0647ZM70.901 58.9515H69.9703V60.9136H70.9513C71.316 60.9136 71.5927 60.8255 71.7939 60.6494C71.9952 60.4734 72.0958 60.2344 72.0958 59.9074C72.0958 59.2785 71.6933 58.9515 70.901 58.9515ZM75.4413 60.2847C76.0702 60.2847 76.5984 60.4859 77.0135 60.8884C77.4285 61.2909 77.6423 61.8066 77.6423 62.4229C77.6423 63.014 77.4285 63.5171 77.0135 63.907C76.5859 64.2969 76.0576 64.4982 75.4162 64.4982C74.7999 64.4982 74.2842 64.2969 73.8566 63.8945C73.4416 63.492 73.2277 62.9889 73.2277 62.3977C73.2277 61.794 73.4416 61.2909 73.8566 60.8884C74.2842 60.4859 74.8125 60.2847 75.4413 60.2847ZM75.4036 61.0268C75.0137 61.0268 74.6867 61.1525 74.4352 61.4167C74.1836 61.6808 74.0578 62.0078 74.0578 62.3977C74.0578 62.7876 74.1836 63.1147 74.4477 63.3662C74.6993 63.6178 75.0389 63.7435 75.4413 63.7435C75.8438 63.7435 76.1708 63.6178 76.4224 63.3662C76.6739 63.1147 76.8122 62.7876 76.8122 62.3977C76.8122 62.0078 76.6739 61.6808 76.4098 61.4167C76.1457 61.1525 75.8061 61.0268 75.4036 61.0268ZM83.6165 60.2973H84.4969L82.6732 64.4982H82.3965L81.1765 61.6179L79.9691 64.4982H79.705L77.8687 60.2973H78.7491L79.8308 62.8002L80.8873 60.2973H81.491L82.5349 62.8002L83.6165 60.2973ZM88.4084 62.4229H85.5031C85.5282 62.8254 85.654 63.1398 85.9056 63.3788C86.1445 63.6178 86.4715 63.731 86.8488 63.731C87.3897 63.731 87.8802 63.5674 88.3455 63.2404V64.0328C88.094 64.1963 87.8424 64.3221 87.5909 64.385C87.3394 64.4605 87.0501 64.4982 86.7231 64.4982C86.2703 64.4982 85.9056 64.3976 85.6163 64.2089C85.3396 64.0202 85.1132 63.7687 84.9371 63.4417C84.761 63.1272 84.6856 62.7499 84.6856 62.3348C84.6856 61.706 84.8616 61.1903 85.2264 60.8004C85.5785 60.4105 86.0439 60.2092 86.6099 60.2092C87.1633 60.2092 87.5909 60.3979 87.9179 60.7878C88.2449 61.1651 88.4084 61.6808 88.4084 62.3223V62.4229ZM85.5282 61.9324H87.6035C87.5783 61.6053 87.4903 61.3538 87.3142 61.1777C87.1381 61.0016 86.9117 60.9136 86.6099 60.9136C86.3206 60.9136 86.0816 61.0016 85.893 61.1777C85.7043 61.3538 85.5785 61.6053 85.5282 61.9324ZM90.1692 60.2973V61.2406L90.2195 61.1651C90.6094 60.5237 91.0119 60.2092 91.4018 60.2092C91.7162 60.2092 92.0306 60.3602 92.3702 60.6746L91.9426 61.3915C91.6533 61.1274 91.3892 60.989 91.1502 60.989C90.8861 60.989 90.6597 61.1148 90.4585 61.3664C90.2698 61.6179 90.1692 61.9198 90.1692 62.2594V64.4227H89.3517V60.2973H90.1692ZM93.9172 58.1591H99.1619V58.964H96.9735V64.4353H96.0679V58.964H93.9172V58.1591ZM100.508 60.2847C101.137 60.2847 101.665 60.4859 102.08 60.8884C102.495 61.2909 102.709 61.8066 102.709 62.4229C102.709 63.014 102.495 63.5171 102.08 63.907C101.665 64.2969 101.124 64.4982 100.483 64.4982C99.8662 64.4982 99.338 64.2969 98.9229 63.8945C98.5079 63.492 98.2941 62.9889 98.2941 62.3977C98.2941 61.794 98.5079 61.2909 98.9229 60.8884C99.338 60.4859 99.8662 60.2847 100.508 60.2847ZM100.457 61.0268C100.067 61.0268 99.7405 61.1525 99.4889 61.4167C99.2374 61.6808 99.1116 62.0078 99.1116 62.3977C99.1116 62.7876 99.2374 63.1147 99.5015 63.3662C99.753 63.6178 100.093 63.7435 100.495 63.7435C100.898 63.7435 101.225 63.6178 101.476 63.3662C101.728 63.1147 101.866 62.7876 101.866 62.3977C101.866 62.0078 101.728 61.6808 101.464 61.4167C101.199 61.1525 100.86 61.0268 100.457 61.0268ZM106.268 58.1591H109.827V58.964H107.174V60.8758H109.739V61.6808H107.174V63.6429H109.915V64.4479H106.268V58.1591ZM114.154 61.4293V64.4353H113.336V62.121C113.336 61.6557 113.274 61.3412 113.148 61.1651C113.022 60.9765 112.808 60.8884 112.506 60.8884C112.343 60.8884 112.179 60.9261 112.041 61.0142C111.903 61.0897 111.739 61.228 111.55 61.4418V64.4479H110.733V60.2973H111.55V60.8381C111.965 60.4105 112.381 60.2092 112.77 60.2092C113.299 60.2092 113.701 60.4608 113.99 60.9639C114.431 60.4608 114.883 60.2092 115.361 60.2092C115.764 60.2092 116.091 60.3602 116.355 60.6494C116.619 60.9387 116.745 61.3915 116.745 61.9952V64.4353H115.927V61.9827C115.927 61.6431 115.852 61.3789 115.713 61.1903C115.575 61.0016 115.374 60.9136 115.11 60.9136C114.758 60.901 114.443 61.0771 114.154 61.4293ZM117.801 66.5483V60.2973H119.235C119.965 60.2973 120.543 60.4859 120.946 60.8507C121.348 61.2154 121.562 61.7311 121.562 62.3852C121.562 63.0015 121.373 63.5171 120.983 63.907C120.593 64.3095 120.116 64.5108 119.512 64.5108C119.248 64.5108 118.958 64.4479 118.631 64.3347V66.5483H117.801ZM119.21 61.0645H118.631V63.6052C118.883 63.731 119.147 63.7938 119.424 63.7938C119.801 63.7938 120.116 63.6555 120.367 63.3914C120.606 63.1272 120.732 62.7876 120.732 62.36C120.732 62.0959 120.681 61.8569 120.556 61.6431C120.443 61.4418 120.279 61.2909 120.09 61.1903C119.889 61.1022 119.6 61.0645 119.21 61.0645ZM124.429 60.2847C125.058 60.2847 125.587 60.4859 126.002 60.8884C126.417 61.2909 126.63 61.8066 126.63 62.4229C126.63 63.014 126.417 63.5171 126.002 63.907C125.574 64.2969 125.046 64.4982 124.404 64.4982C123.788 64.4982 123.272 64.2969 122.845 63.8945C122.43 63.492 122.216 62.9889 122.216 62.3977C122.216 61.794 122.43 61.2909 122.845 60.8884C123.272 60.4859 123.801 60.2847 124.429 60.2847ZM124.392 61.0268C124.002 61.0268 123.675 61.1525 123.423 61.4167C123.172 61.6808 123.046 62.0078 123.046 62.3977C123.046 62.7876 123.172 63.1147 123.436 63.3662C123.7 63.6178 124.027 63.7435 124.429 63.7435C124.832 63.7435 125.159 63.6178 125.411 63.3662C125.662 63.1147 125.8 62.7876 125.8 62.3977C125.8 62.0078 125.662 61.6808 125.398 61.4167C125.134 61.1525 124.794 61.0268 124.392 61.0268ZM132.605 60.2973H133.485L131.661 64.4982H131.397L130.177 61.6179L128.97 64.4982H128.693L126.869 60.2973H127.75L128.831 62.8002L129.888 60.2973H130.504L131.548 62.8002L132.605 60.2973ZM137.409 62.4229H134.504C134.529 62.8254 134.655 63.1398 134.906 63.3788C135.145 63.6178 135.46 63.731 135.85 63.731C136.39 63.731 136.881 63.5674 137.346 63.2404V64.0328C137.095 64.1963 136.843 64.3221 136.592 64.385C136.34 64.4605 136.051 64.4982 135.724 64.4982C135.271 64.4982 134.906 64.3976 134.617 64.2089C134.34 64.0202 134.114 63.7687 133.938 63.4417C133.762 63.1272 133.686 62.7499 133.686 62.3348C133.686 61.706 133.862 61.1903 134.227 60.8004C134.579 60.4105 135.045 60.2092 135.611 60.2092C136.151 60.2092 136.592 60.3979 136.919 60.7878C137.246 61.1651 137.409 61.6808 137.409 62.3223V62.4229ZM134.516 61.9324H136.592C136.566 61.6053 136.478 61.3538 136.302 61.1777C136.126 61.0016 135.887 60.9136 135.598 60.9136C135.309 60.9136 135.07 61.0016 134.881 61.1777C134.692 61.3538 134.567 61.6053 134.516 61.9324ZM139.157 60.2973V61.2406L139.208 61.1651C139.598 60.5237 140 60.2092 140.403 60.2092C140.704 60.2092 141.031 60.3602 141.371 60.6746L140.943 61.3915C140.654 61.1274 140.39 60.989 140.151 60.989C139.887 60.989 139.66 61.1148 139.472 61.3664C139.283 61.6179 139.183 61.9198 139.183 62.2594V64.4227H138.365V60.2973H139.157Z" fill="#3E4140"/>
<path fill-rule="evenodd" clip-rule="evenodd" d="M47.3673 62.2357L45.6442 65.2418C42.437 70.5369 37.1546 76.3478 31.4571 79.052C30.866 79.3287 30.4258 79.5425 29.8347 79.7815C29.4574 79.9324 28.3632 80.3223 28.1368 80.4858C39.8084 78.0961 48.4489 72.889 55.6682 64.1727C61.655 56.9406 67.8052 45.1931 66.9374 31.9237C66.1073 19.1951 58.888 9.59843 48.1848 6.90681C36.727 4.02654 28.0865 9.17078 21.8607 17.4343C21.408 18.0254 20.0245 20.0378 19.8232 20.6793C28.25 16.4658 38.3243 14.5917 46.8265 20.7673C54.2219 26.138 56.448 36.9422 54.5237 46.3754C53.4043 51.8466 51.2159 56.0224 48.4489 60.5881C48.21 60.9654 47.4679 61.9339 47.3673 62.2357Z" fill="#E94E1A"/>
<path fill-rule="evenodd" clip-rule="evenodd" d="M17.8126 79.9837C17.0202 80.5497 13.9514 79.5813 13.1464 79.4429C14.6808 80.5246 17.8503 81.3924 20.1393 81.5182C23.6358 81.7194 25.1702 81.1157 28.1384 80.4868C28.3648 80.3233 29.459 79.9334 29.8363 79.7825C30.4275 79.5435 30.8677 79.3297 31.4588 79.053C37.1563 76.3488 42.4387 70.5379 45.6459 65.2302L47.3689 62.2241C47.5702 61.6204 48.0104 60.8155 48.2871 60.174C50.5761 54.8914 52.2615 48.9045 51.7458 43.0307C51.4314 39.509 50.5635 36.3646 49.0417 33.7987C44.0611 25.3969 33.5718 22.2777 24.5414 26.2648C19.6111 28.4407 16.492 31.9876 13.9136 36.4149C13.5615 37.0312 13.2848 37.7481 12.9578 38.2638C13.3477 38.2009 14.5173 37.4714 15.0582 37.2073C17.4604 36.0753 19.7117 35.2452 22.4661 34.7924C29.5345 33.6352 36.9802 35.9244 40.6024 41.9993C42.3003 44.8545 42.7783 48.9673 42.3632 52.8664C41.6086 59.8218 38.1247 67.0917 34.7163 71.192C33.9114 72.173 32.5279 73.7452 31.5594 74.5754C30.4149 75.5438 29.3458 76.4368 27.8995 77.3299C25.4595 78.8643 20.5544 80.7258 17.8126 79.9837Z" fill="#259A3A"/>
<path fill-rule="evenodd" clip-rule="evenodd" d="M13.1587 79.4409C13.951 79.5793 17.0324 80.5478 17.8248 79.9818C16.479 79.5793 15.7621 78.8624 15.2465 77.6549C13.8127 74.3344 15.0327 68.2469 15.8376 64.9515C16.479 62.3102 17.1959 59.8702 18.0135 57.3295L20.5037 50.0596L10.681 50.0848C10.0773 51.0281 8.76923 56.1598 8.40449 57.6439C6.75688 64.461 4.97092 76.2211 13.1587 79.4409Z" fill="#1D57A6"/>
<path fill-rule="evenodd" clip-rule="evenodd" d="M10.3916 43.5811L11.1085 44.3735C11.6116 43.9333 12.1147 43.4051 12.9196 43.0152C14.6301 42.1976 16.4664 42.1221 18.2146 42.9397C18.6045 43.1158 18.8938 43.317 19.2334 43.556C19.6358 43.8453 19.7616 44.0843 20.1515 44.3232L20.881 43.5811C20.5162 43.0152 19.5352 42.336 18.7554 41.9335C16.7682 40.9273 14.5421 41.0153 12.5549 41.9209C11.838 42.2479 10.7186 43.0529 10.3916 43.5811Z" fill="#1D57A6"/>
<path fill-rule="evenodd" clip-rule="evenodd" d="M11.6621 44.9663L12.4042 45.7964C13.1462 45.3939 14.7309 43.5827 17.3973 44.8153C18.1771 45.1801 18.2274 45.3184 18.7305 45.7964L19.5983 44.8279C18.5418 44.0733 17.6363 43.1551 15.5988 43.1677C13.9134 43.1677 12.6934 43.8594 11.6621 44.9663Z" fill="#1D57A6"/>
<path fill-rule="evenodd" clip-rule="evenodd" d="M13.083 46.388L13.8879 47.0295C13.976 46.9666 14.0263 46.9289 14.0892 46.8786C14.5168 46.5767 15.0199 46.3503 15.5859 46.3377C16.6927 46.3126 16.9316 46.8031 17.636 47.1553L18.1768 46.4006C17.0322 44.9542 14.1898 44.8284 13.083 46.388Z" fill="#1D57A6"/>
<path fill-rule="evenodd" clip-rule="evenodd" d="M14.3286 47.6706L15.7498 49.1045L16.9321 47.7335C16.0014 46.8657 15.3222 46.9411 14.3286 47.6706Z" fill="#1D57A6"/>
<path fill-rule="evenodd" clip-rule="evenodd" d="M73.3526 45.3293C78.5218 44.8388 76.8364 50.4232 74.56 51.6684C73.5035 52.247 72.4093 52.0835 71.0761 52.096L73.3526 45.3293ZM68.5732 53.7814C70.1957 53.8317 73.6796 54.0078 74.9373 53.467C78.6224 51.9074 79.6915 46.5619 77.8426 44.5746C76.6352 43.2666 73.6922 43.6313 71.9188 43.6061L68.5732 53.7814Z" fill="#3E4140"/>
<path fill-rule="evenodd" clip-rule="evenodd" d="M83.5534 54.5371C84.8488 54.1472 86.4084 55.5181 84.5973 55.8829C82.8994 56.2225 81.5662 55.1408 83.5534 54.5371ZM85.616 48.4495C87.1504 47.9338 86.5719 50.3613 85.7418 50.7135C84.9494 51.0531 84.5092 50.638 84.6727 49.7702C84.7985 49.0658 85.0501 48.6382 85.616 48.4495ZM83.6414 51.5562C83 51.7197 82.5598 51.9461 82.346 52.4492C82.019 53.1913 82.2956 53.6566 82.761 54.0465C81.0631 54.688 80.5223 55.8577 81.3021 56.6375C82.5346 57.8827 88.0183 57.3293 87.1001 54.1094C86.6725 52.6001 84.4086 53.2038 84.0187 52.4492C84.396 51.5813 85.2513 52.6379 87.0624 51.443C87.8799 50.9021 88.2572 49.9085 88.2572 48.5124L89.2257 48.4998L89.6407 47.0408C87.3391 46.739 83.9936 46.7012 83.1761 49.1916C83.0377 49.6192 82.9748 50.0972 83.0754 50.5751C83.1257 50.8015 83.1761 50.9021 83.2892 51.0657L83.6414 51.5562Z" fill="#3E4140"/>
<path fill-rule="evenodd" clip-rule="evenodd" d="M127.034 52.2102C124.242 52.8139 124.745 48.5375 128.242 48.6884C128.065 49.3425 127.336 51.7825 127.034 52.2102ZM128.845 46.915C126.292 47.0785 124.242 47.4433 123.487 50.4242C122.594 53.9333 125.688 54.1597 128.405 53.7069L131.738 43.6071L129.939 43.5945L128.845 46.915Z" fill="#3E4140"/>
<path fill-rule="evenodd" clip-rule="evenodd" d="M102.406 48.6017C102.179 49.4821 101.84 50.3751 101.563 51.2555C101.349 51.9221 101.336 51.9473 100.758 52.2114C98.6827 53.117 99.1606 50.7399 99.9781 49.6833C100.519 48.9664 101.06 48.501 102.406 48.6017ZM100.77 53.2805C100.783 53.2931 100.808 53.3434 100.808 53.4566C100.808 53.5321 100.783 53.6704 100.783 53.8088H102.468L104.72 47.1175C103.148 46.8785 101.953 46.7528 100.506 47.3062C96.2804 48.8909 96.3685 56.1356 100.77 53.2805Z" fill="#3E4140"/>
<path fill-rule="evenodd" clip-rule="evenodd" d="M139.044 48.5884C138.867 49.4311 138.465 50.4121 138.201 51.2548C137.798 52.5629 136.44 52.5377 136.138 52.2107C135.522 51.5315 136.289 48.4123 139.044 48.5884ZM137.421 53.2798L137.446 53.8081H139.119L141.37 47.1545C138.427 46.3244 135.824 47.5318 134.767 49.343C133.258 51.9214 134.239 55.4306 137.421 53.2798Z" fill="#3E4140"/>
<path fill-rule="evenodd" clip-rule="evenodd" d="M115.374 53.7834L117.147 53.796L118.305 50.3749C118.355 50.2366 118.393 50.1108 118.418 50.0102C118.581 49.4442 118.531 49.419 119.122 48.9914C120.707 47.8468 120.946 48.5512 120.581 49.7209L119.336 53.8086H121.009L122.48 49.4693C122.53 49.3058 122.568 49.1675 122.581 49.0668C122.782 48.1109 122.681 47.1173 121.763 46.9286C120.719 46.7274 119.864 47.306 119.185 47.6959L119.361 47.0418L117.6 47.0167L115.374 53.7834Z" fill="#3E4140"/>
<path fill-rule="evenodd" clip-rule="evenodd" d="M94.5721 46.9908L93.3521 47.0033L92.8113 48.4875L93.9935 48.5001C93.7923 49.5817 90.5474 55.4052 95.9933 53.506L96.3329 51.7577C96.0562 51.8457 95.5405 52.1098 95.289 52.0847C94.0942 51.9841 95.5783 49.1667 95.8046 48.5252L97.1881 48.5001L97.6661 47.0159L96.3832 47.0033L96.8737 45.6072L95.0626 45.5695L94.5721 46.9908Z" fill="#3E4140"/>
<path fill-rule="evenodd" clip-rule="evenodd" d="M111.549 53.7709L113.435 53.8086L116.844 43.6207H114.92L111.549 53.7709Z" fill="#3E4140"/>
<path fill-rule="evenodd" clip-rule="evenodd" d="M104.205 53.7709L105.966 53.8086L109.362 43.6082H107.563L104.205 53.7709Z" fill="#3E4140"/>
<path fill-rule="evenodd" clip-rule="evenodd" d="M78.4731 53.8452H80.2717L82.435 46.9778H80.6364L78.4731 53.8452ZM82.4224 44.173C82.9129 44.173 83.2147 44.6384 83.089 45.217C82.9632 45.7955 82.4475 46.2609 81.957 46.2609C81.4665 46.2609 81.1647 45.7955 81.2904 45.217C81.4162 44.651 81.9193 44.173 82.4224 44.173Z" fill="#3E4140"/>
<path fill-rule="evenodd" clip-rule="evenodd" d="M88.3943 53.8452H90.1928L92.3561 46.9778H90.5576L88.3943 53.8452ZM92.3435 44.173C92.8466 44.173 93.1359 44.6384 93.0101 45.217C92.8843 45.7955 92.3687 46.2609 91.8782 46.2609C91.3751 46.2609 91.0858 45.7955 91.2116 45.217C91.3374 44.651 91.853 44.173 92.3435 44.173Z" fill="#3E4140"/>
<path fill-rule="evenodd" clip-rule="evenodd" d="M129.913 53.8452H131.711L133.874 46.9778H132.076L129.913 53.8452ZM133.874 44.173C134.377 44.173 134.667 44.6384 134.541 45.217C134.415 45.7955 133.9 46.2609 133.409 46.2609C132.919 46.2609 132.617 45.7955 132.742 45.217C132.868 44.651 133.371 44.173 133.874 44.173Z" fill="#3E4140"/>
<path fill-rule="evenodd" clip-rule="evenodd" d="M140.603 54.8511H88.3325V55.5303H140.603V54.8511Z" fill="#3E4140"/>
<path fill-rule="evenodd" clip-rule="evenodd" d="M78.8993 54.8511H68.2339V55.5303H78.8993V54.8511Z" fill="#3E4140"/>
</svg>
